#!OML:ASF E:\id_vita\Project 1\Capture day 1\Session 1\Female.ASF
:FULLY-SPECIFIED
:DEGREES
1322
root 31.8859 16.6394 -1.2327 -178.33 83.5945 -217.302
lowerback 5.8689 2.06085 -9.62699
upperback -1.38094 2.0093 -0.337358
thorax -5.08626 1.28314 4.83963
lowerneck -6.00616 13.8566 6.77652
upperneck -12.4424 17.806 -24.4702
head 0.379717 9.67536 -7.72744
rclavicle 4.81059e-014 -4.37326e-015
rhumerus 17.6858 2.38573 -89.5047
rradius 1.84414
rwrist 41.7342
rhand -21.3353 -348.582
rfingers 7.12502
rthumb 5.05058 -18.5019
lclavicle 4.81059e-014 -4.37326e-015
lhumerus 16.077 -3.27146 105.49
lradius 11.2899
lwrist -69.4926
lhand -6.16269 -338.938
lfingers 7.12502
lthumb 19.676 1490.09
rfemur -71.6618 6.95986 6.90433
rtibia 57.9415
rfoot -18.4075 16.0581
rtoes -22.6794
lfemur -52.7117 -12.1804 -20.3876
ltibia 39.2419
lfoot -11.1855 4.80237
ltoes -9.88333
1323
root 31.9064 16.6347 -1.21682 -175.189 83.2158 -214.099
lowerback 5.62956 2.13644 -9.36912
upperback -1.41315 2.1601 -0.158649
thorax -5.00391 1.34965 4.87329
lowerneck -5.35828 13.7644 6.80795
upperneck -13.0098 17.6201 -24.7497
head 0.118817 9.67506 -7.91475
rclavicle 2.26615e-014 3.73715e-014
rhumerus 17.3561 1.88781 -89.21
rradius 2.19971
rwrist 40.9747
rhand -20.9545 -349.184
rfingers 7.12502
rthumb 5.41827 -19.0949
lclavicle 2.26615e-014 3.73715e-014
lhumerus 15.3359 -6.01045 104.65
lradius 11.4872
lwrist -66.9106
lhand -6.02592 -338.983
lfingers 7.12502
lthumb 19.8074 1490.03
rfemur -71.6515 7.4396 6.3326
rtibia 55.9861
rfoot -18.8069 18.4157
rtoes -21.8384
lfemur -52.7259 -12.6013 -19.8271
ltibia 39.0765
lfoot -11.0055 5.07415
ltoes -9.74812
1324
root 31.9339 16.6493 -1.19537 -172.585 82.7283 -211.235
lowerback 5.57238 2.22162 -9.26603
upperback -1.39083 2.29713 0.0966985
thorax -4.97583 1.41563 5.07243
lowerneck -4.85966 13.7621 6.89669
upperneck -13.3412 17.5872 -25.1282
head -0.00941398 9.72701 -8.09927
rclavicle 3.1408e-014 2.54444e-014
rhumerus 16.9763 1.40102 -88.872
rradius 2.53538
rwrist 40.1696
rhand -21.2428 -348.873
rfingers 7.12502
rthumb 5.13991 -18.7911
lclavicle 3.1408e-014 2.54444e-014
lhumerus 14.4699 -9.04221 103.846
lradius 11.9477
lwrist -64.1436
lhand -5.87354 -338.845
lfingers 7.12502
lthumb 19.9539 1490.15
rfemur -71.3089 8.01957 5.67653
rtibia 53.8862
rfoot -18.9123 20.6783
rtoes -21.086
lfemur -52.3147 -12.8252 -19.5281
ltibia 38.8955
lfoot -10.9519 4.82786
ltoes -10.3535
1325
root 31.963 16.6728 -1.17487 -170.346 82.3206 -208.703
lowerback 5.47612 2.32096 -9.14733
upperback -1.38373 2.45584 0.296255
thorax -4.94256 1.49177 5.20239
lowerneck -3.89529 13.6876 7.34078
upperneck -14.1199 17.387 -25.9062
head -0.285841 9.7586 -8.53581
rclavicle 1.90833e-014 1.90833e-014
rhumerus 16.5812 0.896546 -88.6481
rradius 2.69577
rwrist 39.2841
rhand -20.3903 -349.434
rfingers 7.12502
rthumb 5.96298 -19.3305
lclavicle 1.90833e-014 1.90833e-014
lhumerus 13.6028 -11.3591 103.268
lradius 12.2979
lwrist -62.37
lhand -5.79598 -338.716
lfingers 7.12502
lthumb 20.0285 1490.27
rfemur -70.8928 8.69506 5.01289
rtibia 51.7042
rfoot -18.2881 22.5181
rtoes -19.0237
lfemur -51.7443 -12.8169 -19.3858
ltibia 38.775
lfoot -11.1612 4.50923
ltoes -12.0422
1326
root 32.0026 16.6999 -1.15033 -169.844 81.7955 -207.632
lowerback 5.70581 2.38485 -9.12155
upperback -1.3161 2.52401 0.36511
thorax -5.01461 1.52596 5.24699
lowerneck -5.10684 14.0183 6.84026
upperneck -12.9191 18.0218 -25.1101
head 0.210598 9.90361 -7.99433
rclavicle 1.66979e-014 -6.67916e-014
rhumerus 16.2151 0.355378 -88.6041
rradius 2.74908
rwrist 38.3955
rhand -19.8718 -350.129
rfingers 7.12502
rthumb 6.46359 -20.0099
lclavicle 1.66979e-014 -6.67916e-014
lhumerus 12.9279 -13.5362 102.594
lradius 12.2941
lwrist -60.7125
lhand -5.85636 -338.651
lfingers 7.12502
lthumb 19.9704 1490.34
rfemur -69.9508 9.36626 4.27734
rtibia 49.512
rfoot -18.6594 23.2865
rtoes -19.4137
lfemur -50.8535 -12.8961 -19.492
ltibia 38.626
lfoot -11.2297 4.26905
ltoes -12.1256
